 
http://www.imdb.com/title/tt1588342/



General:

Complete name:                   : Snabba Cash 2 Blueray.1280x720.wmv

Format                           : Windows Media
File size                        : 2.98 GiB
Duration                         : 1h 35mn
Overall bit rate mode            : Constant
Overall bit rate                 : 4 454 Kbps
Maximum Overall bit rate         : 10.1 Mbps

Video
ID                               : 1
Format                           : VC-1
Format profile                   : MP
Codec ID                         : WMV3
Codec ID/Info                    : Windows Media Video 9
Codec ID/Hint                    : WMV3
Duration                         : 1h 35mn
Bit rate mode                    : Constant
Bit rate                         : 10 000 Kbps
Width                            : 1 280 pixels
Height                           : 720 pixels
Display aspect ratio             : 16:9
Frame rate                       : 29.970 fps
Bit depth                        : 8 bits
Scan type                        : Progressive
Compression mode                 : Lossy
Bits/(Pixel*Frame)               : 0.362
Stream size                      : 6.69 GiB
Language                         : Swedish 

Audio
ID                               : 2
Format                           : WMA
Format version                   : Version 2
Codec ID                         : 161
Codec ID/Info                    : Windows Media Audio
Duration                         : 1h 35mn
Bit rate mode                    : Constant
Bit rate                         : 128 Kbps
Channel(s)                       : 2 channels
Sampling rate                    : 48.0 KHz
Bit depth                        : 16 bits
Stream size                      : 87.7 MiB (3%)
Language                         : Swedish

--------------------------------------------------------------------------------- 

JW - en gång lovande Handelsstudent med för stor hunger efter snabba cash. Nu betalar han priset; fyra år på Norrtälje-anstalten. 
Fängelsetiden är tuff men JW har en plan på hur han ska komma ur den kriminella världen och vända sitt liv tillrätta.

---------------------------------------------------------------------------------

Screnshort: 
http://bayimg.com/gAhgGaaEM 
http://bayimg.com/gAHghaaeM 
http://bayimg.com/GahGjAAem 
http://bayimg.com/gahGkAAem 
http://bayimg.com/GAhglaAeM 
http://bayimg.com/gaHGMaAem 
http://bayimg.com/gAHGoaaEM 
http://bayimg.com/hahgAAaEm 
http://bayimg.com/haHgBAAEm 
http://bayimg.com/HAhGdAAEM

